<svg width="948" height="638" viewBox="0 0 948 638" fill="none" xmlns="http://www.w3.org/2000/svg">
<path opacity="0.22" d="M549 -164L624.125 -14.8807L748.044 -126.792L764.228 39.3955L920.206 -20.1939L875.263 140.618L1042.23 141.398L942.235 275.115L1097.65 336.16L956.098 424.723L1078.97 537.788L914.98 569.237L988.708 719.052L824.435 689.138L839.064 855.47L696.691 768.234L650.246 928.618L549 795.842L447.754 928.618L401.309 768.234L258.936 855.47L273.565 689.138L109.293 719.052L183.02 569.237L19.0341 537.788L141.902 424.723L0.350464 336.16L155.765 275.115L55.765 141.398L222.737 140.618L177.794 -20.1939L333.772 39.3955L349.956 -126.792L473.875 -14.8807L549 -164Z" fill="#A79BE1"/>
</svg>
